<?xml version="1.0" encoding="UTF-8"?>
<!DOCTYPE svg PUBLIC "-//W3C//DTD SVG 1.1//EN" "http://www.w3.org/Graphics/SVG/1.1/DTD/svg11.dtd">
<!-- Creator: CorelDRAW 2020 (64 Bit) -->
<svg xmlns="http://www.w3.org/2000/svg" xml:space="preserve" width="436.735mm" height="53.5383mm" version="1.1" style="shape-rendering:geometricPrecision; text-rendering:geometricPrecision; image-rendering:optimizeQuality; fill-rule:evenodd; clip-rule:evenodd"
viewBox="0 0 4906.39 601.46"
 xmlns:xlink="http://www.w3.org/1999/xlink"
 xmlns:xodm="http://www.corel.com/coreldraw/odm/2003">
 <defs>
  <style type="text/css">
   <![CDATA[
    .fil0 {fill:#FEFEFE;fill-rule:nonzero}
   ]]>
  </style>
 </defs>
 <g id="Camada_x0020_1">
  <metadata id="CorelCorpID_0Corel-Layer"/>
  <g id="_1883997740080">
   <path class="fil0" d="M392.17 309.67c0,25.37 -4.25,48.33 -12.49,68.9 -8.5,20.54 -19.93,38.37 -34.81,53.46 -14.88,15.14 -32.95,26.76 -53.94,34.89 -21.26,8.08 -44.37,12.17 -69.88,12.17l-96.45 0 0 -342.09 96.45 0c25.51,0 48.62,4.2 69.88,12.57 20.99,8.4 39.06,20.14 53.94,35.26 14.88,15.14 26.3,33.24 34.81,54.31 8.24,21.1 12.49,44.05 12.49,68.9l0 1.65zm46.76 -204.3c-26.84,-25.37 -58.72,-45.22 -95.65,-59.57 -37.2,-14.32 -77.85,-21.47 -122.22,-21.47l-221.06 0 0 567.43 221.06 0c44.37,0 85.02,-7.31 122.22,-21.92 36.93,-14.59 68.82,-34.57 95.65,-59.97 26.57,-25.4 47.29,-55.4 61.91,-89.96 14.61,-34.59 21.79,-71.9 21.79,-111.89l0 -1.62c0,-39.96 -7.17,-77.11 -21.79,-111.46 -14.61,-34.3 -35.34,-64.14 -61.91,-89.57z"/>
   <path class="fil0" d="M720.57 340.47c4.78,-28.11 15.14,-50.54 31.09,-67.28 15.94,-16.77 36.93,-25.13 62.97,-25.13 25.77,0 46.5,8.5 62.44,25.53 15.41,17 25.24,39.32 28.96,66.88l-185.46 0zm254.01 -119.56c-17.54,-21.89 -39.59,-39.32 -66.16,-52.29 -26.3,-12.97 -57.66,-19.45 -93.79,-19.45 -31.88,0 -61.11,5.95 -87.15,17.83 -26.3,11.9 -48.89,28.11 -67.75,48.65 -18.86,20.54 -33.74,44.58 -44.11,72.14 -10.63,27.55 -15.94,56.73 -15.94,87.55l0 1.62c0,33.5 5.85,63.9 17,91.19 11.43,27.29 27.1,50.93 47.56,70.91 20.19,20.01 44.11,35.39 72,46.21 27.9,10.81 57.92,16.21 90.34,16.21 39.59,0 73.86,-7.17 103.09,-21.47 29.23,-14.32 53.94,-34.17 74.66,-59.57l-70.68 -62.44c-17.27,15.7 -34.01,27.05 -50.22,34.06 -16.21,7.01 -34.54,10.55 -55.26,10.55 -27.37,0 -50.48,-7.17 -69.08,-21.49 -18.87,-14.3 -31.09,-35.55 -36.93,-63.64l302.36 0c0.53,-5.95 0.8,-11.05 1.06,-15.38 0.27,-4.33 0.53,-9.49 0.53,-15.41l0 -1.65c0,-30.79 -4.25,-60.39 -12.49,-88.74 -8.5,-28.35 -21.52,-53.51 -39.06,-75.38z"/>
   <path class="fil0" d="M1393.32 371.26c-12.49,-9.72 -26.57,-17.96 -42.25,-24.71 -15.68,-6.78 -31.09,-12.57 -46.23,-17.43 -11.96,-3.77 -23.12,-7.57 -33.48,-11.35 -10.63,-3.8 -19.93,-7.73 -28.16,-11.77 -7.97,-4.04 -14.35,-8.37 -19.4,-12.97 -4.78,-4.57 -7.17,-9.86 -7.17,-15.81l0 -1.62c0,-8.63 3.72,-15.81 11.16,-21.47 7.71,-5.69 19.13,-8.53 34.28,-8.53 15.68,0 33.74,3.67 54.2,10.95 20.46,7.31 41.71,17.16 63.24,29.6l47.03 -85.13c-23.91,-15.65 -49.95,-27.95 -78.12,-36.88 -28.43,-8.9 -56.59,-13.36 -83.96,-13.36 -22.32,0 -42.78,2.98 -62.17,8.9 -19.13,5.98 -35.87,14.88 -50.22,26.76 -14.35,11.9 -25.51,26.36 -34.01,43.39 -8.5,17.01 -12.49,36.61 -12.49,58.75l0 1.62c0,21.1 3.98,38.92 11.69,53.51 7.71,14.59 18.07,26.86 30.29,36.91 12.49,9.96 26.57,18.09 41.98,24.29 15.14,6.22 30.56,11.48 45.7,15.81 11.96,3.8 23.12,7.31 34.01,10.55 10.89,3.24 20.46,6.62 28.69,10.12 8.5,3.51 15.14,7.7 19.93,12.57 4.78,4.84 7.44,10.52 7.44,17.01l0 1.65c0,9.7 -4.25,17.54 -12.75,23.49 -8.24,5.95 -21.52,8.93 -39.32,8.93 -20.46,0 -42.51,-4.33 -65.89,-12.97 -23.65,-8.64 -47.29,-21.6 -70.94,-38.93l-52.87 81.07c29.23,22.69 60.05,39.3 92.2,49.85 32.15,10.55 63.5,15.81 94.32,15.81 23.38,0 44.9,-2.82 65.36,-8.53 20.19,-5.66 38,-14.19 52.87,-25.51 15.14,-11.35 27.1,-25.8 35.34,-43.36 8.5,-17.56 12.75,-38.53 12.75,-62.81l0 -1.65c0,-19.95 -4.25,-37.01 -12.22,-51.07 -8.24,-14.03 -18.33,-25.93 -30.82,-35.66z"/>
   <path class="fil0" d="M1624.21 340.47c4.78,-28.11 15.41,-50.54 31.35,-67.28 15.94,-16.77 36.93,-25.13 62.71,-25.13 26.04,0 46.76,8.5 62.44,25.53 15.68,17 25.51,39.32 29.23,66.88l-185.72 0zm254.27 -119.56c-17.54,-21.89 -39.59,-39.32 -66.16,-52.29 -26.57,-12.97 -57.92,-19.45 -94.06,-19.45 -31.88,0 -60.84,5.95 -87.15,17.83 -26.04,11.9 -48.62,28.11 -67.75,48.65 -18.86,20.54 -33.48,44.58 -44.11,72.14 -10.63,27.55 -15.68,56.73 -15.68,87.55l0 1.62c0,33.5 5.58,63.9 17,91.19 11.16,27.29 27.1,50.93 47.29,70.91 20.46,20.01 44.37,35.39 72.27,46.21 27.9,10.81 57.92,16.21 90.34,16.21 39.32,0 73.6,-7.17 102.83,-21.47 29.23,-14.32 54.2,-34.17 74.66,-59.57l-70.41 -62.44c-17.54,15.7 -34.01,27.05 -50.48,34.06 -16.21,7.01 -34.54,10.55 -55,10.55 -27.63,0 -50.75,-7.17 -69.35,-21.49 -18.6,-14.3 -30.82,-35.55 -36.93,-63.64l302.36 0c0.53,-5.95 1.06,-11.05 1.33,-15.38 0.27,-4.33 0.27,-9.49 0.27,-15.41l0 -1.65c0,-30.79 -3.98,-60.39 -12.49,-88.74 -8.24,-28.35 -21.26,-53.51 -38.79,-75.38z"/>
   <path class="fil0" d="M2271.99 149.16c-15.68,0 -29.76,1.91 -42.25,5.71 -12.49,3.83 -23.65,8.98 -34.01,15.52 -10.36,6.54 -19.66,14.03 -27.9,22.45 -8.5,8.42 -16.21,17.3 -23.12,26.54l0 -62.12 -123.28 0 0 434.5 123.28 0 0 -241.81c0,-29.09 6.91,-51.07 20.72,-65.89 13.82,-14.8 32.42,-22.21 56.33,-22.21 23.65,0 41.98,7.41 55,22.21 13.02,14.83 19.4,36.8 19.4,65.89l0 241.81 123.28 0 0 -281.32c0,-50.22 -12.75,-89.67 -38.53,-118.32 -25.51,-28.64 -61.91,-42.96 -108.94,-42.96z"/>
   <path class="fil0" d="M2913.12 520.82c-28.16,14.3 -61.64,21.47 -100.43,21.47 -31.35,0 -60.58,-6.06 -87.15,-18.23 -26.84,-12.17 -50.22,-28.78 -69.88,-49.85 -19.66,-21.1 -35.07,-45.94 -46.23,-74.58 -10.89,-28.62 -16.47,-59.46 -16.47,-92.38 0,-32.97 5.58,-63.66 16.47,-92.04 11.16,-28.35 26.57,-53.09 46.23,-74.16 19.66,-21.07 43.04,-37.54 69.88,-49.45 26.57,-11.88 55.8,-17.86 87.15,-17.86 38.79,0 72.27,7.31 99.9,21.89 27.9,14.61 53.94,33.24 78.38,55.93l43.57 -47c-13.82,-13.5 -28.43,-25.8 -43.57,-36.88 -15.14,-11.08 -31.62,-20.54 -49.42,-28.38 -17.8,-7.84 -37.2,-13.9 -57.92,-18.23 -20.99,-4.33 -44.37,-6.48 -70.14,-6.48 -41.71,0 -79.98,7.68 -115.31,23.09 -35.07,15.41 -65.36,36.48 -90.6,63.24 -25.51,26.73 -45.43,57.95 -59.78,93.61 -14.08,35.68 -21.26,73.76 -21.26,114.33 0,41.05 7.17,79.42 21.26,115.07 14.35,35.68 34.28,66.64 59.78,92.84 25.24,26.17 55.26,46.87 89.81,61.96 34.81,15.14 72.54,22.72 113.45,22.72 26.04,0 49.69,-2.42 70.68,-7.28 20.99,-4.89 40.65,-11.61 59.25,-20.25 18.33,-8.66 35.34,-19.08 51.28,-31.25 15.94,-12.17 31.35,-25.8 45.97,-40.94l-42.25 -41.34c-27.1,25.96 -54.47,46.1 -82.63,60.42z"/>
   <path class="fil0" d="M3466.83 446.45c-7.71,19.71 -18.33,36.83 -31.62,51.39 -13.55,14.53 -29.76,25.98 -48.62,34.35 -19.13,8.34 -39.85,12.51 -62.44,12.51 -22.32,0 -42.78,-4.28 -61.64,-12.91 -18.86,-8.63 -35.34,-20.22 -49.15,-34.75 -13.82,-14.56 -24.44,-31.83 -32.42,-51.76 -7.71,-19.93 -11.69,-41.26 -11.69,-63.9 0,-22.61 3.72,-43.79 11.43,-63.45 7.44,-19.69 17.8,-36.93 31.09,-51.76 13.28,-14.83 29.23,-26.41 48.36,-34.78 18.86,-8.34 39.59,-12.51 62.44,-12.51 22.05,0 42.51,4.3 61.38,12.94 19.13,8.63 35.6,20.35 49.69,35.18 13.82,14.8 24.97,32.2 32.68,52.13 7.97,19.93 11.69,41.26 11.69,63.9 0,22.61 -3.72,43.79 -11.16,63.42zm13.55 -218.25c-19.4,-19.74 -42.51,-35.39 -69.08,-47.03 -26.84,-11.61 -55.8,-17.43 -87.15,-17.43 -31.88,0 -61.38,5.82 -87.95,17.43 -26.84,11.64 -49.95,27.42 -69.35,47.43 -19.4,19.98 -34.54,43.36 -45.43,70.09 -10.89,26.78 -16.21,55 -16.21,84.71 0,29.73 5.31,57.84 16.21,84.31 10.89,26.52 26.04,49.63 45.43,69.32 19.4,19.74 42.25,35.39 68.82,47 26.57,11.61 55.53,17.43 86.88,17.43 31.35,0 60.31,-5.82 87.42,-17.43 27.1,-11.61 50.22,-27.42 69.61,-47.4 19.66,-19.98 34.81,-43.36 45.96,-70.12 10.89,-26.76 16.47,-55 16.47,-84.73 0,-29.68 -5.31,-57.82 -16.21,-84.28 -10.63,-26.46 -25.77,-49.58 -45.43,-69.3z"/>
   <path class="fil0" d="M3980.96 448.34c-8.24,20.17 -19.66,37.25 -34.01,51.23 -14.35,14 -30.55,24.84 -48.62,32.65 -18.07,7.81 -36.93,11.69 -56.33,11.69 -19.93,0 -38.79,-3.75 -56.59,-11.29 -18.07,-7.52 -33.74,-18.41 -47.03,-32.65 -13.55,-14.27 -24.18,-31.3 -32.15,-51.2 -7.71,-19.9 -11.69,-42.25 -11.69,-66.98 0,-25.24 3.99,-47.98 11.69,-68.13 7.97,-20.17 18.33,-37.09 31.62,-50.83 13.29,-13.71 28.7,-24.18 46.5,-31.43 18.07,-7.28 37.2,-10.92 57.66,-10.92 19.4,0 38.26,3.91 56.33,11.72 18.07,7.81 34.27,18.68 48.62,32.68 14.35,13.98 25.77,30.9 34.01,50.8 8.5,19.9 12.75,41.93 12.75,66.11 0,24.21 -4.25,46.42 -12.75,66.56zm10.1 -195.42c-7.97,-11.88 -17.27,-23.22 -27.9,-34.04 -10.36,-10.81 -22.32,-20.27 -35.34,-28.38 -12.75,-8.1 -27.37,-14.59 -43.57,-19.45 -16.21,-4.86 -34.01,-7.31 -53.67,-7.31 -25.24,0 -49.95,4.99 -73.6,14.99 -23.91,10.02 -45.17,24.34 -64.03,42.96 -19.13,18.65 -34.01,41.48 -45.43,68.5 -11.43,27.02 -17.01,57.82 -17.01,92.41 0,34.62 5.58,65.41 17.01,92.38 11.42,27.05 26.3,49.87 45.43,68.55 18.86,18.6 40.12,32.79 64.03,42.51 23.65,9.75 48.36,14.61 73.6,14.61 19.66,0 37.2,-2.44 53.14,-7.28 15.94,-4.86 30.55,-11.66 43.31,-20.3 13.02,-8.64 24.71,-18.63 35.34,-30 10.63,-11.32 20.19,-23.22 28.7,-35.63l0 84.31 62.44 0 0 -591.76 -62.44 0 0 252.92z"/>
   <path class="fil0" d="M4230.98 359.12c2.13,-20.54 7.17,-39.48 14.61,-56.75 7.44,-17.3 17.27,-32.28 28.96,-44.98 11.96,-12.7 25.51,-22.69 41.18,-30 15.41,-7.28 32.42,-10.95 50.75,-10.95 20.99,0 39.32,3.93 55.26,11.77 15.68,7.84 29.23,18.23 40.12,31.19 11.16,12.97 19.66,28.11 25.77,45.38 6.11,17.32 10.1,35.39 11.69,54.34l-268.36 0zm281.37 -130.51c-16.74,-20.01 -37.2,-35.79 -61.64,-47.43 -24.18,-11.61 -51.81,-17.43 -82.63,-17.43 -29.23,0 -56.06,5.69 -80.77,17.03 -24.44,11.35 -45.7,26.89 -63.5,46.6 -17.8,19.74 -31.88,42.96 -41.71,69.72 -10.1,26.76 -15.14,55.24 -15.14,85.5 0,32.44 5.58,62.15 17.01,89.2 11.16,27.02 26.3,50.14 45.43,69.27 18.86,19.18 41.18,34.04 66.69,44.58 25.24,10.55 52.34,15.81 81.04,15.81 39.85,0 73.33,-7.17 100.43,-21.47 27.1,-14.32 51.01,-33.37 72,-57.15l-38.79 -34.83c-17.27,17.83 -36.4,32.12 -57.13,42.96 -20.72,10.81 -45.96,16.21 -74.93,16.21 -18.6,0 -36.13,-3.14 -52.87,-9.35 -16.74,-6.19 -31.88,-15.38 -45.17,-27.55 -13.55,-12.17 -24.71,-27.02 -33.48,-44.58 -8.5,-17.56 -13.82,-37.68 -16.21,-60.39l331.59 0c0.53,-3.77 0.8,-7.31 0.8,-10.5 0,-3.27 0,-6.24 0,-8.93 0,-30.85 -4.25,-59.73 -13.02,-86.75 -8.5,-27.02 -21.26,-50.53 -37.99,-70.52z"/>
   <path class="fil0" d="M4850.33 172.68c-17.27,5.39 -33.21,13.37 -47.83,23.91 -14.61,10.52 -27.63,23.09 -38.79,37.68 -11.43,14.59 -20.99,30.55 -28.43,47.83l0 -109.41 -62.44 0 0 419.09 62.44 0 0 -167.02c0,-31.3 4.25,-59.01 13.02,-83.06 8.5,-24.07 20.46,-44.19 35.6,-60.39 15.14,-16.23 32.95,-28.38 53.14,-36.48 20.19,-8.1 41.71,-12.17 64.3,-12.17l5.05 0 0 -67.28c-20.19,-0.53 -38.79,1.91 -56.06,7.31z"/>
  </g>
 </g>
</svg>
